PathFileType	4	(X/Y/Z)	Walk5.trc
DataRate	CameraRate	NumFrames	NumMarkers	Units	OrigDataRate	OrigDataStartFrame	OrigNumFrames
200.000000	200.000000	5	59	mm	200.000000	380	534
Frame#	Times		LBHD		C7		T10		RBack		LPSI		RPSI		RCAR		LElbowM		RElbowM		LUA1		RBHD		RFA1		LLFC		LCAR		RWRR		RFHD		LACR1		RTH3		CLAV		LWRR		RUA1		RTH2		RACR1		LWRU		RTB4		RTH4		RTB3		RToe		RMT1		RWRU		LFA1		RCAL		RMT5		LTH4		LTH1		RElbow		RLFC		RTB1		RTB2		STRN		LElbow		LFHD		LTH2		LTH3		RMMAL		RLMAL		LTB3		LTB2		RASI		LCAL		LMT1		LASI		LLMAL		LTB1		LMT5		RTH1		LTB4		LToe		LMMAL
			X1	Y1	Z1	X2	Y2	Z2	X3	Y3	Z3	X4	Y4	Z4	X5	Y5	Z5	X6	Y6	Z6	X7	Y7	Z7	X8	Y8	Z8	X9	Y9	Z9	X10	Y10	Z10	X11	Y11	Z11	X12	Y12	Z12	X13	Y13	Z13	X14	Y14	Z14	X15	Y15	Z15	X16	Y16	Z16	X17	Y17	Z17	X18	Y18	Z18	X19	Y19	Z19	X20	Y20	Z20	X21	Y21	Z21	X22	Y22	Z22	X23	Y23	Z23	X24	Y24	Z24	X25	Y25	Z25	X26	Y26	Z26	X27	Y27	Z27	X28	Y28	Z28	X29	Y29	Z29	X30	Y30	Z30	X31	Y31	Z31	X32	Y32	Z32	X33	Y33	Z33	X34	Y34	Z34	X35	Y35	Z35	X36	Y36	Z36	X37	Y37	Z37	X38	Y38	Z38	X39	Y39	Z39	X40	Y40	Z40	X41	Y41	Z41	X42	Y42	Z42	X43	Y43	Z43	X44	Y44	Z44	X45	Y45	Z45	X46	Y46	Z46	X47	Y47	Z47	X48	Y48	Z48	X49	Y49	Z49	X50	Y50	Z50	X51	Y51	Z51	X52	Y52	Z52	X53	Y53	Z53	X54	Y54	Z54	X55	Y55	Z55	X56	Y56	Z56	X57	Y57	Z57	X58	Y58	Z58	X59	Y59	Z59

380	1.9	140.57	1501.1	-89.101	109.04	1363.7	-22.237	83.99	1092.7	-22.39	79.523	1262.9	105.74	61.243	901.65	-50.203	62.541	909.15	49.086	256.77	757.15	290.61	146.35	976.68	-221.79	118.65	969.88	177.3	212.24	1128	-262.61	136.89	1507.1	34.51	171.92	883.12	266.9	279.44	461.93	-180.57	317.5	739.39	-310.35	276.75	796.79	243.38	316.02	1503	13.49	197.22	1301.6	-181.81	219.39	555.61	140.89	234.16	1286.5	-10.552	314.49	777.98	-259.96	183.1	1151.1	217.94	283.47	661.84	129.52	174.93	1305.3	134.88	265.24	776.41	-315.56	238.15	240.86	31.044	217.25	648.12	166.33	242.07	147.66	24.828	358.2	24.166	-7.3896	299.83	44.153	-4.7625	206.86	777.95	259.1	223.25	890.45	-305.43	151.54	39.163	56.09	288.88	31.794	54.6	263.52	664.59	-194.75	233.34	752.98	-207.15	159.91	1009.9	256.56	235.06	455.94	120.99	247.51	332.84	31.54	225.47	239.05	102.22	299.16	1183.5	-10.095	184.36	1009.6	-283.01	312.63	1495.1	-63.2	325.75	689.94	-165.31	287.68	573.26	-184.94	203.59	72.392	-7.6154	212.86	63.115	70.614	132.24	217.71	-75.494	154.05	310.07	-146.02	288.31	883.18	138.05	-19.257	187.87	-36.199	92.278	91.121	-78.154	274.45	877.28	-171.83	19.762	186.45	-92.454	260.6	343.02	-106.91	47.903	100.52	-118.65	218.23	733.84	192.83	189.32	287.18	-88.526	105.56	45.339	-106.08	58.064	166.45	-25.115
381	1.905	146.26	1501	-89.124	114.83	1363.7	-22.149	89.495	1092.8	-22.23	85.393	1262.9	105.94	66.645	901.63	-50.264	67.832	909.34	49.044	267.15	758.36	290.09	150.98	976.81	-221.8	126	969.59	177.82	216.83	1128	-262.78	142.64	1507.1	34.482	180.71	883.35	267.03	290.47	462.95	-180.07	321.23	739.13	-311.09	286.35	798.28	242.81	321.75	1503.1	13.373	202.66	1301.6	-181.82	222.13	555.61	140.85	239.92	1286.4	-10.662	318.46	777.67	-260.64	189.63	1151.3	218	287.16	661.19	129.01	180.91	1305.4	134.82	269.03	776.28	-316.08	238.68	240.81	31.062	221.13	648.16	166.26	242.35	147.59	24.753	358.33	24.151	-7.4426	299.87	44.007	-4.943	216.81	778.61	258.96	227.46	890.48	-305.76	151.56	39.316	55.973	288.91	31.79	54.463	271.8	665.37	-194.51	240.43	753.34	-206.99	167.29	1010	256.92	236.42	455.86	121.11	248.43	332.79	31.621	226.04	239.02	102.22	304.82	1183.3	-10.459	188.89	1009.7	-283.1	318.35	1495.2	-63.304	333.61	691.61	-164.76	297.21	574.38	-184.52	203.7	72.445	-7.7514	212.92	63.125	70.506	147.14	216.09	-75.487	167.51	308.81	-146.02	293.94	883.27	137.86	-4.274	182.57	-37.045	110.8	89.706	-78.331	281.11	877.84	-171.62	35.431	182.35	-93.063	273.19	343.73	-106.41	66.43	97.596	-119.14	223.16	733.8	192.91	202.94	286.64	-88.309	125.95	44.52	-106.28	73.737	163.43	-25.395
382	1.91	151.97	1500.9	-89.158	120.62	1363.6	-22.067	94.984	1092.8	-22.101	91.26	1262.9	106.13	72.025	901.53	-50.356	73.106	909.45	48.984	277.5	759.55	289.53	155.65	976.87	-221.78	133.39	969.22	178.32	221.43	1127.9	-262.94	148.4	1507	34.44	189.47	883.52	267.13	301.39	463.95	-179.52	324.96	738.82	-311.86	295.92	799.73	242.22	327.49	1503.1	13.243	208.11	1301.4	-181.83	224.92	555.58	140.8	245.68	1286.3	-10.773	322.43	777.29	-261.34	196.12	1151.4	218.06	290.9	660.51	128.47	186.89	1305.4	134.76	272.82	776.09	-316.62	239.27	240.77	31.092	225.08	648.16	166.17	242.65	147.52	24.687	358.47	24.136	-7.4791	299.92	43.867	-5.1217	226.7	779.27	258.8	231.66	890.44	-306.11	151.57	39.478	55.848	288.93	31.792	54.318	280.04	666.09	-194.24	247.51	753.63	-206.86	174.61	1010.1	257.25	237.84	455.77	121.22	249.41	332.74	31.692	226.65	238.98	102.22	310.47	1183.1	-10.819	193.39	1009.7	-283.18	324.07	1495.1	-63.417	341.39	693.2	-164.17	306.67	575.46	-184.05	203.83	72.506	-7.884	213	63.14	70.4	162.18	214.36	-75.451	181.08	307.41	-146.03	299.53	883.28	137.67	10.992	177.03	-37.957	129.53	88.207	-78.471	286.47	878.14	-171.43	51.355	178.04	-93.719	285.75	344.43	-105.83	85.232	94.543	-119.62	228.19	733.7	192.97	216.63	286.03	-88.054	146.56	43.682	-106.39	89.608	160.24	-25.707
383	1.915	157.69	1500.7	-89.205	126.41	1363.5	-21.989	100.46	1092.7	-22	97.126	1262.8	106.32	77.385	901.33	-50.478	78.366	909.48	48.903	287.81	760.72	288.95	160.36	976.86	-221.73	140.81	968.77	178.78	226.05	1127.8	-263.1	154.17	1506.8	34.384	198.19	883.65	267.19	312.21	464.92	-178.92	328.68	738.44	-312.66	305.45	801.16	241.61	333.25	1503	13.103	213.56	1301.2	-181.84	227.78	555.52	140.74	251.43	1286	-10.885	326.4	776.86	-262.06	202.57	1151.4	218.12	294.71	659.78	127.91	192.87	1305.3	134.69	276.61	775.83	-317.17	239.92	240.74	31.13	229.1	648.12	166.07	242.97	147.44	24.63	358.61	24.122	-7.5008	299.98	43.733	-5.2976	236.55	779.92	258.63	235.85	890.34	-306.46	151.58	39.648	55.718	288.95	31.799	54.166	288.23	666.75	-193.95	254.57	753.86	-206.76	181.89	1010.1	257.57	239.36	455.68	121.31	250.45	332.69	31.75	227.32	238.95	102.21	316.1	1182.7	-11.174	197.88	1009.6	-283.26	329.81	1495	-63.54	349.08	694.73	-163.56	316.05	576.5	-183.55	203.97	72.576	-8.0116	213.09	63.162	70.295	177.36	212.53	-75.386	194.74	305.88	-146.03	305.06	883.23	137.48	26.552	171.27	-38.924	148.46	86.642	-78.588	290.65	878.18	-171.26	67.537	173.55	-94.415	298.29	345.13	-105.16	104.29	91.386	-120.1	233.31	733.56	192.99	230.38	285.34	-87.762	167.38	42.844	-106.45	105.68	156.9	-26.049
384	1.92	163.42	1500.4	-89.265	132.21	1363.3	-21.916	105.92	1092.6	-21.927	102.99	1262.6	106.5	82.729	901.03	-50.627	83.614	909.43	48.802	298.08	761.86	288.35	165.11	976.76	-221.65	148.26	968.26	179.21	230.68	1127.6	-263.25	159.95	1506.6	34.315	206.87	883.72	267.21	322.91	465.86	-178.27	332.39	738	-313.48	314.94	802.55	240.97	339.03	1502.8	12.952	219.01	1301	-181.86	230.71	555.43	140.68	257.18	1285.8	-11	330.37	776.35	-262.8	208.98	1151.3	218.18	298.57	659.02	127.35	198.84	1305.1	134.63	280.39	775.52	-317.75	240.64	240.71	31.175	233.16	648.04	165.97	243.31	147.34	24.579	358.75	24.108	-7.5099	300.03	43.605	-5.47	246.36	780.55	258.43	240.03	890.17	-306.82	151.6	39.824	55.585	288.98	31.811	54.01	296.37	667.35	-193.64	261.6	754.04	-206.67	189.11	1010	257.88	240.97	455.59	121.39	251.54	332.63	31.792	228.05	238.92	102.21	321.72	1182.3	-11.522	202.35	1009.5	-283.33	335.55	1494.8	-63.673	356.7	696.18	-162.93	325.35	577.51	-183.01	204.12	72.651	-8.1326	213.2	63.19	70.192	192.67	210.63	-75.294	208.5	304.24	-146.03	310.5	883.12	137.3	42.416	165.32	-39.932	167.58	85.028	-78.696	293.94	877.99	-171.13	83.976	168.89	-95.147	310.78	345.84	-104.41	123.6	88.158	-120.58	238.49	733.38	192.98	244.18	284.59	-87.437	188.36	42.024	-106.46	121.95	153.43	-26.418
